<?xml version="1.0" standalone="no"?>
<!DOCTYPE svg PUBLIC "-//W3C//DTD SVG 20010904//EN"
 "http://www.w3.org/TR/2001/REC-SVG-20010904/DTD/svg10.dtd">
<svg version="1.0" xmlns="http://www.w3.org/2000/svg"
 width="900.000000pt" height="369.000000pt" viewBox="0 0 900.000000 369.000000"
 preserveAspectRatio="xMidYMid meet">
<metadata>
Created by potrace 1.10, written by Peter Selinger 2001-2011
</metadata>
<g transform="translate(0.000000,369.000000) scale(0.100000,-0.100000)"
fill="#000000" stroke="none">
<path d="M4642 3588 c-5 -7 -20 -35 -32 -61 -17 -37 -20 -51 -11 -60 8 -8 16
-8 27 -2 22 14 76 113 69 125 -9 14 -41 12 -53 -2z"/>
<path d="M7762 3419 c-40 -5 -87 -15 -105 -23 -28 -13 -118 -43 -154 -52 -7
-2 -13 -15 -13 -29 0 -22 4 -25 38 -25 20 0 55 7 78 15 26 9 83 14 156 14 123
1 125 0 193 -62 11 -10 31 -20 45 -24 14 -3 39 -17 55 -32 39 -35 88 -61 113
-61 12 0 35 -20 59 -53 43 -57 278 -283 314 -302 12 -7 37 -41 57 -76 34 -61
35 -68 34 -161 -1 -62 -6 -109 -16 -133 -18 -43 -21 -95 -5 -95 21 0 66 59 87
113 18 49 20 65 12 147 -8 81 -15 104 -60 198 -29 59 -60 126 -71 148 -30 64
-136 166 -246 236 -46 30 -139 68 -164 68 -7 0 -44 34 -82 75 -38 41 -75 75
-83 75 -8 0 -25 6 -37 14 -12 8 -40 17 -62 20 -22 4 -47 8 -55 10 -8 2 -48 -1
-88 -5z"/>
<path d="M3469 3384 c-113 -35 -170 -154 -121 -254 9 -19 38 -49 64 -66 43
-29 166 -74 202 -74 29 0 144 -60 158 -83 38 -59 21 -131 -41 -169 -31 -20
-50 -23 -131 -23 -82 0 -100 3 -132 23 -43 26 -73 66 -83 105 -6 22 -13 27
-36 27 -25 0 -29 -4 -29 -26 0 -49 59 -132 115 -162 105 -55 298 -40 368 29
27 28 57 98 57 134 0 86 -62 149 -185 187 -27 9 -73 23 -101 32 -29 9 -57 16
-63 16 -26 0 -93 53 -108 85 -14 30 -15 40 -3 75 14 44 44 68 105 87 116 36
243 -15 270 -107 10 -35 38 -51 56 -33 6 6 7 29 3 52 -10 61 -73 124 -147 145
-66 19 -155 19 -218 0z"/>
<path d="M227 3384 c-16 -5 -17 -29 -15 -362 l3 -357 25 0 c25 0 25 0 30 115
l5 115 110 7 c194 12 255 40 309 145 22 44 22 164 -1 206 -57 104 -111 127
-303 132 -80 2 -153 2 -163 -1z m345 -89 c76 -52 101 -150 59 -234 -36 -69
-80 -89 -222 -98 -145 -9 -139 -16 -139 181 0 89 3 166 7 169 3 4 63 7 132 7
118 0 129 -2 163 -25z"/>
<path d="M1243 3380 l-23 -9 0 -343 c0 -189 4 -349 8 -356 7 -9 58 -12 223
-10 l214 3 0 25 0 25 -185 5 -185 5 -3 132 c-3 157 -23 142 188 146 142 2 145
2 148 25 2 12 2 23 0 24 -2 1 -77 4 -168 7 l-165 6 -3 127 -3 126 28 5 c15 3
94 5 174 5 81 0 152 2 158 6 17 11 13 34 -8 46 -24 12 -367 12 -398 0z"/>
<path d="M2222 3382 c-9 -7 -12 -86 -10 -363 l3 -354 28 -3 27 -3 0 295 c0
162 4 297 9 300 4 3 39 -38 77 -90 38 -53 118 -164 178 -248 191 -265 184
-258 214 -254 l27 3 3 356 c2 333 1 357 -15 361 -43 11 -43 9 -43 -292 0 -159
-4 -291 -9 -294 -7 -5 -80 90 -223 289 -16 22 -66 90 -111 152 -45 61 -86 118
-92 126 -13 19 -46 29 -63 19z"/>
<path d="M4412 3382 c-9 -7 -12 -86 -10 -363 l3 -354 215 0 215 0 3 23 c2 12
2 23 0 24 -2 1 -86 4 -188 7 l-185 6 0 135 0 135 162 3 c137 2 162 5 167 19
14 36 -10 42 -173 45 l-156 3 -3 124 c-2 90 1 127 10 132 6 4 82 8 168 8 85 0
160 0 166 0 18 1 26 32 13 47 -9 11 -53 14 -203 14 -105 0 -197 -4 -204 -8z"/>
<path d="M5391 3376 c-8 -9 -11 -113 -9 -362 l3 -349 215 0 215 0 0 25 0 25
-183 3 -183 2 3 138 3 137 160 5 160 5 0 25 0 25 -162 3 -162 2 -3 121 c-2 66
1 127 6 136 7 13 34 15 170 13 88 -1 167 -2 174 -1 18 2 15 48 -4 55 -9 3
-100 6 -204 6 -146 0 -190 -3 -199 -14z"/>
<path d="M7057 3330 c-32 -10 -63 -22 -70 -28 -6 -5 -32 -13 -57 -17 -25 -4
-101 -32 -169 -61 -104 -45 -135 -54 -184 -54 -63 0 -110 -17 -167 -60 -19
-15 -40 -29 -47 -31 -32 -11 -135 -108 -152 -144 -129 -271 -134 -293 -110
-475 l11 -84 -28 -24 c-114 -95 -145 -143 -163 -253 -25 -150 -9 -232 55 -284
l44 -36 0 -117 c0 -83 5 -133 18 -172 38 -121 130 -241 214 -277 24 -11 75
-25 115 -33 59 -11 77 -11 105 0 90 36 79 56 -37 63 -170 11 -231 56 -319 232
-27 54 -30 72 -35 185 -6 133 -16 161 -65 194 -40 26 -59 81 -52 150 17 151
69 233 188 296 62 33 65 33 185 32 119 -1 124 -2 200 -38 57 -28 96 -56 143
-104 36 -36 103 -94 150 -129 47 -35 108 -88 135 -117 58 -62 114 -94 166 -94
43 0 61 -17 62 -63 1 -26 -9 -46 -43 -86 -37 -43 -53 -54 -108 -71 -35 -11
-74 -20 -87 -20 -13 0 -48 -23 -86 -58 -35 -32 -84 -73 -109 -92 -85 -65 -105
-94 -211 -299 -27 -51 -49 -102 -49 -111 0 -10 -6 -33 -14 -51 -7 -19 -11 -51
-8 -74 4 -32 6 -36 13 -20 4 11 8 34 9 50 0 17 7 39 15 49 8 11 15 29 15 41 0
12 4 25 9 31 6 5 22 32 36 59 38 71 120 179 158 207 17 14 59 40 92 58 33 18
78 45 100 59 22 15 67 35 100 45 50 15 83 29 158 64 17 8 5 -28 -23 -66 -16
-23 -30 -46 -30 -51 0 -5 -13 -36 -30 -69 -29 -58 -40 -122 -21 -122 8 0 81
114 81 128 0 4 27 47 60 97 33 49 60 95 60 101 0 6 7 17 15 24 8 7 15 21 15
33 0 11 9 35 21 54 24 39 43 32 54 -18 5 -20 16 -34 33 -40 15 -6 72 -54 126
-107 55 -53 130 -127 168 -164 38 -38 71 -68 74 -68 2 0 4 8 4 18 0 28 -54 97
-150 192 -99 98 -150 161 -150 185 0 20 -2 21 87 -38 39 -26 77 -47 83 -47 6
0 50 -20 98 -44 48 -24 105 -50 127 -59 72 -28 69 -26 140 -71 66 -43 147
-131 177 -196 88 -186 43 -440 -77 -440 -28 0 -36 -7 -220 -203 -43 -45 -79
-73 -127 -95 -81 -38 -139 -46 -244 -34 -97 11 -218 65 -303 136 -64 53 -123
67 -276 65 -55 0 -138 2 -184 6 -67 5 -82 4 -79 -7 3 -8 27 -15 64 -18 32 -3
68 -10 79 -17 11 -6 76 -13 145 -15 134 -5 178 -17 227 -62 14 -14 58 -41 97
-62 39 -20 77 -40 86 -45 30 -16 160 -39 222 -39 62 0 118 15 221 59 50 21
162 120 172 151 3 9 33 40 66 69 46 38 69 51 93 51 38 0 82 39 118 103 20 37
23 55 22 142 -1 95 -22 192 -53 254 -6 12 -15 30 -21 41 -5 11 -10 25 -10 30
0 20 -109 149 -155 184 -25 19 -87 55 -138 81 -50 25 -105 54 -122 64 -16 10
-61 35 -100 55 -38 21 -88 53 -111 72 -38 30 -41 37 -40 79 1 37 -4 50 -21 63
-20 15 -22 21 -13 54 6 21 15 40 20 43 16 10 12 63 -6 90 -21 32 -73 34 -114
3 -25 -18 -33 -20 -55 -10 -14 6 -25 16 -25 22 0 5 -12 10 -26 10 -26 0 -36
-16 -78 -132 -15 -41 -22 -48 -52 -54 -60 -11 -94 6 -154 79 -49 60 -137 137
-156 137 -4 0 -46 38 -94 84 -47 46 -100 90 -116 99 -137 73 -158 80 -304 86
l-135 6 3 85 c5 143 48 334 89 397 23 34 209 174 252 189 20 7 53 13 74 14 22
0 51 6 65 14 70 38 168 77 229 92 37 9 73 20 78 25 6 4 39 17 74 29 149 52
365 -13 492 -147 30 -32 74 -78 99 -103 60 -61 140 -155 140 -165 0 -5 6 -16
14 -24 32 -36 104 -190 110 -236 18 -123 26 -145 51 -145 38 0 48 31 40 129
-6 72 -12 95 -41 146 -50 88 -54 93 -118 180 -57 76 -73 93 -141 154 -16 15
-56 57 -89 94 -33 38 -77 76 -103 89 -25 13 -48 28 -50 35 -3 7 -12 13 -20 13
-8 0 -27 7 -41 15 -81 44 -276 57 -375 25z m404 -1558 c6 -15 5 -22 -4 -22
-23 0 -40 18 -33 35 8 22 27 15 37 -13z"/>
<path d="M6956 2771 c-9 -14 2 -51 15 -51 11 0 12 30 0 49 -6 9 -11 10 -15 2z"/>
<path d="M6740 2721 c0 -10 7 -24 15 -31 8 -7 15 -17 15 -22 0 -10 48 -74 80
-109 8 -8 38 -43 65 -77 49 -60 65 -73 65 -52 0 9 -35 66 -50 80 -34 33 -160
201 -160 213 0 10 -7 17 -15 17 -8 0 -15 -8 -15 -19z"/>
<path d="M6980 2688 c0 -13 7 -33 15 -44 8 -10 15 -31 15 -45 0 -15 7 -32 15
-39 8 -7 15 -25 15 -40 0 -15 7 -33 15 -40 13 -11 15 -7 15 23 0 19 -7 40 -15
47 -8 7 -15 24 -15 39 0 15 -6 36 -14 47 -8 11 -16 30 -18 43 -4 33 -28 40
-28 9z"/>
<path d="M7660 2663 c-28 -60 -60 -253 -42 -253 15 0 47 75 56 130 4 25 14 64
22 88 8 24 12 48 9 53 -11 17 -32 9 -45 -18z"/>
<path d="M1568 2489 c-10 -5 -18 -16 -18 -23 0 -12 -71 -46 -95 -46 -8 0 -116
-53 -174 -85 -35 -19 -119 -104 -149 -150 -78 -118 -111 -281 -81 -400 14 -55
29 -69 54 -52 15 12 16 19 6 66 -6 28 -11 71 -11 94 1 97 59 239 127 312 72
76 201 153 267 158 30 2 31 1 28 -38 -1 -22 -9 -69 -16 -105 -8 -36 -22 -103
-31 -150 -9 -47 -22 -112 -30 -145 -7 -33 -21 -98 -30 -145 -52 -272 -74 -361
-93 -390 -11 -17 -16 -48 -17 -100 0 -41 -6 -97 -12 -125 -14 -60 -36 -169
-58 -285 -9 -47 -22 -116 -30 -155 -44 -218 -105 -599 -105 -653 0 -19 8 -39
22 -52 19 -17 24 -18 42 -6 12 7 32 34 44 59 26 50 23 87 -8 87 -27 0 -31 11
-20 71 5 30 16 97 25 149 15 93 27 156 60 330 47 249 58 305 91 457 l17 81 46
17 c132 47 356 188 484 306 89 82 99 83 202 33 292 -143 264 -622 -56 -943
-67 -67 -145 -121 -249 -172 -141 -68 -255 -103 -382 -114 -69 -7 -95 -22 -84
-51 6 -14 17 -16 84 -10 85 7 199 31 250 52 18 8 37 14 42 14 20 0 167 74 230
116 195 129 334 317 406 549 15 46 19 91 19 191 0 133 -6 158 -53 249 -42 82
-148 174 -219 189 -59 13 -59 27 0 113 29 43 68 113 85 157 28 68 32 91 32
167 0 78 -3 95 -27 140 -59 109 -180 182 -343 205 -54 8 -122 11 -157 8 -55
-6 -62 -4 -72 15 -13 24 -18 25 -43 10z m268 -93 c145 -22 247 -83 294 -176
38 -75 26 -187 -34 -308 -36 -73 -43 -85 -93 -147 l-49 -60 -104 -6 c-58 -4
-128 -14 -156 -22 -59 -17 -163 -67 -216 -102 -20 -14 -39 -21 -42 -17 -3 5 1
35 9 68 8 32 21 94 29 137 9 42 23 112 32 155 9 42 22 106 29 142 8 36 21 99
29 140 9 41 18 93 21 115 9 60 29 83 72 88 72 7 88 7 179 -7z m38 -764 c8 -13
-158 -141 -269 -208 -43 -27 -181 -94 -192 -94 -15 0 -19 16 -15 56 11 94 274
251 424 253 26 1 49 -3 52 -7z"/>
<path d="M8155 2461 c-33 -9 -85 -30 -115 -45 -30 -16 -73 -39 -95 -50 -64
-32 -137 -113 -178 -196 -43 -89 -92 -146 -133 -155 -16 -3 -39 -8 -52 -11
-40 -8 -18 -29 35 -32 44 -3 56 1 94 30 25 19 67 68 96 113 72 112 98 136 215
193 145 71 185 82 299 82 l98 0 30 -37 c17 -21 31 -43 31 -49 0 -6 11 -24 25
-40 14 -16 37 -47 52 -69 44 -65 75 -95 122 -116 24 -10 49 -19 56 -19 21 0
84 -77 112 -138 24 -52 26 -68 26 -178 0 -86 -5 -130 -16 -155 -8 -19 -18 -45
-21 -59 -12 -58 -147 -160 -209 -160 -14 0 -44 -7 -67 -15 -30 -11 -84 -15
-187 -15 -130 0 -144 -2 -141 -17 2 -9 28 -29 58 -45 50 -25 63 -28 140 -25
143 5 296 59 380 135 70 62 113 166 132 318 12 95 3 166 -35 269 -23 62 -96
137 -156 160 -66 25 -111 73 -150 160 -5 12 -16 27 -25 34 -9 8 -28 36 -43 63
-42 77 -69 88 -204 87 -73 -1 -136 -7 -174 -18z"/>
<path d="M7070 2448 c0 -7 4 -19 9 -27 11 -17 23 1 15 23 -7 19 -24 21 -24 4z"/>
<path d="M250 2405 c-7 -8 -10 -22 -6 -30 5 -13 57 -15 423 -13 l418 3 0 25 0
25 -411 3 c-355 2 -413 0 -424 -13z"/>
<path d="M2214 2405 c-4 -8 -4 -22 0 -30 5 -13 72 -15 548 -13 522 3 543 4
546 22 2 10 -2 22 -10 27 -7 5 -253 9 -546 9 -464 0 -533 -2 -538 -15z"/>
<path d="M3792 2411 c-8 -5 -12 -17 -10 -27 3 -18 32 -19 983 -19 l980 0 0 25
0 25 -970 2 c-533 2 -976 -1 -983 -6z"/>
<path d="M3562 2376 c-28 -25 -96 -150 -127 -236 -33 -92 -83 -269 -114 -400
-17 -74 -38 -160 -46 -190 -13 -53 -27 -108 -61 -257 -15 -66 -29 -125 -54
-228 -7 -27 -16 -68 -20 -90 -4 -22 -18 -83 -29 -135 -22 -95 -37 -172 -48
-242 -5 -37 8 -68 28 -68 9 0 31 44 65 130 34 88 138 296 172 345 92 133 119
128 137 -25 17 -144 110 -170 222 -62 52 49 164 194 177 226 5 14 10 16 18 8
8 -8 8 -26 -1 -68 -27 -135 1 -228 81 -270 96 -50 221 38 447 314 19 23 36 40
38 38 2 -2 -6 -37 -17 -77 -25 -87 -45 -230 -37 -253 10 -25 44 -19 65 11 10
16 34 55 51 88 18 33 52 90 74 128 23 37 46 77 52 87 19 38 32 21 39 -51 6
-68 27 -126 50 -141 20 -14 53 -8 71 12 10 11 41 66 69 121 28 56 56 101 61
101 6 -1 13 -18 16 -39 8 -60 36 -103 76 -120 65 -26 138 2 237 94 32 30 60
52 63 49 2 -2 0 -21 -6 -43 -19 -67 -14 -178 10 -225 32 -63 55 -77 122 -78
50 0 66 5 110 34 85 57 281 269 325 352 8 15 8 24 0 32 -20 20 -36 13 -70 -31
-119 -154 -214 -253 -297 -309 -14 -10 -45 -18 -68 -18 -36 0 -44 4 -62 34
-26 41 -28 138 -6 213 12 40 31 66 93 129 102 102 132 150 132 209 0 39 -3 45
-25 51 -62 15 -121 -41 -190 -179 -23 -45 -47 -83 -53 -83 -7 -1 -16 -2 -22
-3 -5 0 -31 -23 -57 -49 -87 -87 -168 -138 -202 -127 -29 9 -49 57 -56 137
-11 117 -47 136 -102 54 -24 -35 -86 -157 -102 -199 -13 -32 -39 -46 -52 -26
-5 8 -9 69 -9 137 l0 122 -27 0 c-21 0 -35 -11 -58 -42 -44 -61 -113 -169
-125 -196 -5 -13 -14 -20 -20 -17 -13 8 -13 41 2 68 6 12 15 35 19 52 4 16 17
55 29 85 45 118 49 134 38 147 -6 7 -16 13 -24 13 -14 0 -67 -107 -79 -158 -6
-30 -9 -32 -38 -27 -30 6 -35 2 -79 -57 -128 -175 -289 -319 -355 -318 -43 1
-83 66 -83 134 0 17 6 62 14 100 14 66 17 71 94 145 83 81 142 168 142 212 0
14 -9 34 -20 44 -25 22 -59 14 -104 -25 -34 -30 -106 -141 -106 -164 0 -19
-22 -36 -46 -36 -16 0 -34 -17 -63 -58 -22 -31 -57 -81 -78 -111 -53 -76 -143
-171 -171 -182 -38 -14 -59 4 -66 58 -21 153 -40 188 -103 186 -45 -1 -108
-60 -165 -155 -22 -38 -44 -68 -49 -68 -13 0 -11 36 5 94 20 71 37 144 46 191
4 22 13 63 20 90 51 202 61 244 71 291 4 22 29 81 55 130 26 49 60 114 75 144
24 49 39 81 93 205 71 161 94 285 57 305 -28 15 -36 13 -69 -14z m-2 -158 c0
-13 -7 -32 -15 -42 -8 -11 -15 -30 -15 -42 0 -12 -6 -27 -14 -33 -7 -6 -16
-25 -20 -41 -3 -17 -10 -30 -16 -30 -15 0 -12 43 5 66 8 10 15 27 15 37 0 11
6 31 14 45 8 15 17 35 20 45 8 25 26 21 26 -5z m1946 -814 c-3 -9 -6 -18 -6
-20 0 -3 -4 -3 -10 1 -11 7 -2 35 12 35 6 0 7 -7 4 -16z"/>
<path d="M8115 2045 c-16 -7 -50 -21 -75 -30 -25 -10 -59 -24 -77 -31 -17 -8
-36 -14 -41 -14 -6 0 -23 -6 -39 -14 -33 -16 -112 -37 -165 -44 -53 -6 -51
-32 1 -32 43 0 59 -13 41 -35 -6 -7 -7 -15 -3 -18 4 -2 85 -4 178 -3 143 2
176 5 205 21 31 16 33 19 15 26 -11 4 -85 8 -165 8 -156 1 -203 12 -129 29 46
11 92 26 146 49 17 7 34 13 37 13 3 0 34 13 68 29 35 16 71 31 81 35 10 3 15
10 12 16 -9 14 -54 11 -90 -5z"/>
<path d="M6696 1932 c-12 -20 78 -66 189 -97 68 -19 176 -17 183 3 2 8 -9 12
-35 12 -22 0 -59 6 -84 14 -24 7 -71 21 -104 31 -33 9 -75 23 -93 31 -38 16
-49 17 -56 6z"/>
<path d="M3984 1745 c-6 -16 51 -138 73 -157 18 -14 43 -2 43 20 0 35 -66 147
-89 150 -12 2 -24 -3 -27 -13z"/>
<path d="M6769 1751 c-92 -6 -136 -21 -123 -42 7 -11 385 -12 402 0 8 5 12 17
10 27 -3 17 -14 19 -98 20 -52 1 -138 -2 -191 -5z"/>
<path d="M7345 1658 c-32 -95 -35 -130 -35 -353 0 -177 4 -244 15 -281 8 -27
15 -62 15 -79 0 -32 14 -63 22 -49 10 19 8 763 -2 769 -6 4 -12 0 -15 -7z"/>
<path d="M7490 1410 c0 -10 6 -34 14 -52 17 -42 31 -84 61 -178 37 -120 53
-149 81 -150 23 0 -55 263 -103 352 -27 49 -53 63 -53 28z"/>
<path d="M2735 1348 c-11 -6 -32 -23 -46 -37 -15 -14 -38 -34 -53 -44 -42 -29
-66 -87 -66 -162 0 -93 31 -145 98 -164 48 -14 98 6 139 56 28 34 42 43 67 43
73 0 187 59 257 133 76 80 24 107 -58 29 -57 -54 -131 -94 -178 -96 -29 -1
-30 0 -32 49 -5 94 -24 164 -51 185 -28 22 -48 24 -77 8z m54 -89 c12 -35 15
-92 5 -102 -13 -13 -44 14 -52 46 -10 37 3 87 23 87 7 0 18 -14 24 -31z m-101
-88 c5 -15 26 -44 46 -63 43 -42 45 -60 10 -87 -34 -27 -62 -27 -91 1 -41 38
-27 178 18 178 4 0 12 -13 17 -29z"/>
</g>
</svg>
