<?xml version="1.0" encoding="utf-8"?>
<!-- Generator: Adobe Illustrator 24.2.3, SVG Export Plug-In . SVG Version: 6.00 Build 0)  -->
<svg version="1.1" id="Calque_1" xmlns="http://www.w3.org/2000/svg" xmlns:xlink="http://www.w3.org/1999/xlink" x="0px" y="0px"
	 viewBox="0 0 222.9 273.6" style="enable-background:new 0 0 222.9 273.6;" xml:space="preserve">
<style type="text/css">
	.st0{fill:#F4F2EE;}
	.st1{fill:#1A161A;}
	.st2{fill:#E54524;}
	.st3{fill:#01519A;}
	.st4{fill:#FFFFFF;}
</style>
<path class="st0" d="M129,269.4H94.6c-49.7,0-90.4-40.7-90.4-90.4V94.2c0-49.7,40.7-90.4,90.4-90.4H129c49.7,0,90.4,40.7,90.4,90.4
	v84.7C219.4,228.7,178.7,269.4,129,269.4z"/>
<g>
	<polygon class="st1" points="64.7,89 67.5,89 67.5,79.4 75.2,79.4 75.2,76.7 67.5,76.7 67.5,70.7 75.9,70.7 75.9,68 64.7,68 	"/>
	<polygon class="st1" points="85.3,68 82.4,68 82.4,89 93.7,89 93.7,86.3 85.3,86.3 	"/>
	<polygon class="st1" points="102.8,79.3 111.5,79.3 111.5,76.6 102.8,76.6 102.8,70.7 112,70.7 112,68 99.9,68 99.9,89 112.2,89 
		112.2,86.3 102.8,86.3 	"/>
	<path class="st1" d="M131.8,81.4c0,3.4-1.8,5.3-5.1,5.3c-3.2,0-5.1-1.9-5.1-5.3V68h-2.9v13.6c0,2.5,0.7,4.4,2.2,5.8
		c1.5,1.3,3.4,2,5.7,2c2.3,0,4.3-0.7,5.7-2c1.5-1.4,2.2-3.3,2.2-5.8V68h-2.9V81.4z"/>
	<path class="st1" d="M152.1,80.4c2.3-1,3.8-3.3,3.8-5.9c0-1.8-0.6-3.4-1.9-4.5c-1.3-1.2-2.8-1.8-4.5-1.8h-7.3v21h2.9v-8.1h4.2
		l4.6,8.1h3.3L152.1,80.4z M145.1,70.7h4.3c2.1,0,3.6,1.6,3.6,3.7c0,1.1-0.4,2-1.1,2.8c-0.7,0.7-1.6,1.1-2.7,1.1h-4.2V70.7z"/>
</g>
<g>
	<path class="st1" d="M19.3,121.7v-21.6h14.2v4.3H24v4.4h8.6v4.2H24v8.6H19.3z"/>
	<path class="st1" d="M38.7,121.7v-21.6h9c2,0,3.7,0.7,5.2,2.1c1.5,1.4,2.2,3,2.2,5c0,2.8-1.5,5.1-3.8,6.1l5.3,8.3h-5.4l-4.5-7.2
		h-0.1h-3.1v7.2H38.7z M43.4,110.3h3.8c1.9,0,3.1-1.2,3.1-3c0-1.6-1.2-2.8-2.7-2.8h-4.2V110.3z"/>
	<path class="st1" d="M58.2,121.7l11.2-22.8l11.2,22.8h-5.1l-1.7-3.4h-9l-1.7,3.4H58.2z M66.7,114.2h5.5l-2.8-5.7L66.7,114.2z"/>
	<path class="st1" d="M85,121.7V99.3l14.5,13.1v-12.3h4.7v22.4l-14.5-13.1v12.2H85z"/>
	<path class="st1" d="M112.7,103c2.3-2.1,5-3.2,8.2-3.2c2.6,0,4.8,0.7,6.7,2.2v5c-1.9-1.9-4.2-2.9-6.7-2.9c-1.9,0-3.5,0.7-4.9,2
		c-1.3,1.3-2,2.9-2,4.9s0.7,3.6,2,4.9c1.3,1.3,2.9,1.9,4.9,1.9c2.5,0,4.8-1,6.7-2.9v5c-1.7,1.3-3.7,2.1-6,2.2l-0.5,1.1
		c1.1,0,2,0.9,2,2.3c0,2-1.4,3-3.7,3c-1.1,0-2.1-0.3-2.9-0.8l0.9-1.9c0.5,0.3,0.9,0.4,1.5,0.4c0.6,0,1.1-0.4,1.1-1
		c0-0.9-0.6-1.1-1.8-1.1l0.9-2.1c-2.8-0.4-5.1-1.6-7-3.6c-1.9-2-2.8-4.5-2.8-7.4C109.3,107.7,110.4,105.1,112.7,103z"/>
	<path class="st1" d="M131,121.7l11.2-22.8l11.2,22.8h-5.1l-1.7-3.4h-9l-1.7,3.4H131z M139.4,114.2h5.5l-2.8-5.7L139.4,114.2z"/>
	<path class="st1" d="M157.9,121.7v-21.6h4.8v21.6H157.9z"/>
	<path class="st1" d="M168,115.1c2,1.7,4.4,2.6,7.3,2.6c2.4,0,3.8-0.9,3.8-2.1c0-0.7-0.3-1.3-1-1.7c-0.6-0.4-2-1-3.8-1.6
		c-3.7-1.3-5.8-3.2-5.8-6.4c0-1.9,0.7-3.3,2.2-4.4c1.5-1.1,3.3-1.6,5.5-1.6c2.2,0,4.1,0.5,5.8,1.5v4.7c-1.5-1.2-3.3-1.8-5.6-1.8
		c-2,0-3.1,0.7-3.1,1.7c0,0.6,0.3,1.1,1.1,1.6l1.1,0.5l1.4,0.6l1.4,0.5c2.1,0.8,3.5,1.7,4.4,2.7c0.9,1,1.3,2.3,1.3,3.9
		c0,3.8-2.9,6.4-8.3,6.4c-2.8,0-5.3-0.6-7.5-2V115.1z"/>
	<path class="st1" d="M188.6,121.7v-21.6h14.7v4.3h-10v4.1h9.3v4.2h-9.3v4.6h10.2v4.3H188.6z"/>
</g>
<g>
	<path class="st2" d="M71.9,36.2l1,1.9c-1.3-0.4-2.6-0.3-3.8,0.3c-1,0.5-1.7,1.3-2,2.3c-0.3,1-0.2,2,0.3,3.1c0.5,1,1.3,1.7,2.3,2
		c1,0.3,2,0.2,3.1-0.3c1.2-0.6,2-1.6,2.4-3l1,1.9c-0.5,1.1-1.3,2-2.6,2.7c-1.5,0.8-3,0.9-4.5,0.5c-1.5-0.5-2.7-1.4-3.5-2.9
		c-0.8-1.5-0.9-3-0.4-4.5c0.5-1.5,1.5-2.7,3-3.4C69.5,36.1,70.7,35.9,71.9,36.2z"/>
	<path class="st2" d="M79.7,42.5c-1.4-0.7-2.4-1.8-3-3.4c-0.5-1.6-0.4-3.1,0.3-4.5c0.7-1.4,1.9-2.4,3.5-3c1.6-0.5,3.1-0.4,4.6,0.3
		c1.5,0.7,2.5,1.8,3,3.4c0.5,1.6,0.4,3.1-0.3,4.5c-0.7,1.4-1.9,2.4-3.5,2.9C82.7,43.3,81.2,43.2,79.7,42.5z M80.6,40.8
		c1,0.5,2,0.5,3.1,0.2c1.1-0.4,1.8-1,2.3-2c0.5-1,0.5-2,0.2-3.1c-0.4-1.1-1-1.9-2-2.4c-1-0.5-2-0.6-3-0.2c-1.1,0.4-1.8,1-2.3,2
		c-0.5,1-0.5,2-0.2,3.1C79,39.6,79.7,40.3,80.6,40.8z"/>
	<path class="st2" d="M92.3,40.2l-2-11.1l2-0.4l1.7,9.3l4.4-0.8l0.3,1.8L92.3,40.2z"/>
	<path class="st2" d="M101.1,38.8l-0.8-11.3l2-0.1l0.7,9.4l4.5-0.3l0.1,1.8L101.1,38.8z"/>
	<path class="st2" d="M110.1,38.3l0.5-11.3l7.2,0.3l-0.1,1.8l-5.2-0.2l-0.1,2.7l4.8,0.2l-0.1,1.8l-4.8-0.2l-0.1,3.1l5.3,0.2
		l-0.1,1.8L110.1,38.3z"/>
	<path class="st2" d="M130.7,30.4l-0.4,2.1c-0.8-1.2-1.9-1.9-3.2-2.1c-1.1-0.2-2.1,0-3,0.6s-1.4,1.5-1.6,2.6c-0.2,1.1,0,2.1,0.6,3
		c0.6,0.9,1.5,1.4,2.6,1.6c1.3,0.2,2.6,0,3.7-0.9l-0.4,2.1c-1.1,0.6-2.3,0.8-3.7,0.5c-1.6-0.3-2.9-1.1-3.9-2.4
		c-0.9-1.3-1.3-2.8-1-4.4c0.3-1.6,1.1-2.9,2.5-3.8c1.3-0.9,2.9-1.2,4.5-0.9C128.8,28.9,129.9,29.4,130.7,30.4z"/>
	<path class="st2" d="M133.5,42l2.9-9l-2.9-0.9l0.6-1.7l7.8,2.5l-0.6,1.7l-2.9-0.9l-2.9,9L133.5,42z"/>
	<path class="st2" d="M140.5,44.5l4.4-10.4l1.9,0.8l-4.4,10.4L140.5,44.5z"/>
	<path class="st2" d="M145.3,46.6l5.4-9.9l6,3.3l-0.9,1.6l-4.2-2.3l-1.4,2.5l3.9,2.1l-0.9,1.6l-3.9-2.1l-2.3,4.2L145.3,46.6z"/>
</g>
<g>
	<path class="st2" d="M101.2,50.2v-4.1h1.5c0.7,0,1.2,0.2,1.6,0.6c0.4,0.4,0.6,0.9,0.6,1.5s-0.2,1.1-0.6,1.5
		c-0.4,0.4-0.9,0.5-1.6,0.5H101.2z M102.1,49.4h0.6c1,0,1.3-0.5,1.3-1.2c0-0.4-0.1-0.7-0.3-0.9c-0.2-0.2-0.5-0.3-1-0.3h-0.6V49.4z"
		/>
	<path class="st2" d="M105.8,50.2v-4.1h2.8V47h-1.9v0.8h1.8v0.8h-1.8v0.9h1.9v0.8H105.8z"/>
	<path class="st2" d="M112.4,50.2v-4.1h0.9v3.2h1.6v0.8H112.4z"/>
	<path class="st2" d="M115.4,50.2l2.1-4.3l2.1,4.3h-1l-0.3-0.6h-1.7l-0.3,0.6H115.4z M117,48.8h1l-0.5-1.1L117,48.8z"/>
</g>
<path class="st2" d="M103,148.7c0,0-2.2-7.4-1.2-10.4c1-3,1.2-3.8,1.2-3.8l6.1,8.6v-3.6c0,0,2.2,2.4,3.3,3.6c1,1.1,1,3.4,1,3.4
	s2.4-3.9,3.4-5.2c1-1.3,3.9,5.3,3.9,7.5s0,7.3,0,7.3l1.2-3.2c0,0,1.5,0.7,2,1.6c0.5,0.9,0.5,0.9,0.5,0.9s1.5-2.1,2-3s2,4.1,2,4.1
	s3.2-4.5,5.8-4.2s4.3,7.2,4.3,7.2l2.4-3.3c0,0-0.7,4.4-1,6c-0.3,1.6,0,5.3-0.9,6.6c-0.9,1.4-0.5,3.7-0.5,3.7s4.3-3.9,8.2-4.5
	c3.9-0.6,9.9-0.2,9.9-0.2s-5.6,3.4-8,4.7c-2.4,1.3-5.6,2.9-5.6,2.9l5.1,0.8c0,0,5.8-3.2,9.5-3.9s-0.5,2.2-1.5,2.8s-4.9,4.6-4.9,4.6
	s4.8,2.9,6.5,2.5c1.7-0.4,3.7-1.2,3.7-1.2l-3.4,3.3c0,0,7,0.6,10.5,0.8c3.6,0.2-5.1,0.8-6,1c-0.9,0.2-6.1,0.2-6.1,0.2
	s4.1,1.7,5.3,1.9s4.6,0.6,4.6,0.6s-3.6,0.1-10.2-0.7c-6.6-0.8,9.5,5,9.5,5s-4.9,1-6.6,1c-1.7,0-4.4-1.2-4.4-1.2s1.7,2.5,1.2,3.5
	c-0.5,1,3.2,1.3,5.1,0.3c1.9-1-0.9,1.5-2.6,2.1c-1.7,0.6-5.3,1-5.3,1s-2.7,1.1-3.7,1.1c-1,0,5.1,2.6,1.9,3.5c-3.2,1-4.6,1-4.6,1
	s4.9,4.1,6,6.8s1.2,7,0.9,8c-0.3,1-1.7-1.9-4.3-2.1s-5.4-3-5.4-3s0.7,5.9,0.9,6.7c0.2,0.8-3.4-0.9-3.4-0.9s1.9,6.3,1,7.9
	c-0.9,1.6-3.1,2.2-4.6,1.4c-1.5-0.8-2.1-1.5-2.1-1.5s-0.6,2.9,0,4.4c0.6,1.6,1.9,5.3,1.9,5.3l-3.2-3.2c0,0,0.2,6-0.2,8.8
	c-0.3,2.7-0.2,5.2-0.2,5.2s-6-2.1-7.7-4.7s-4.9-1.8-7.8-4.7c-2.9-2.9-3.6-9.5-3.6-9.5l-4.4,1.6c0,0-3.6,12.3-4.8,15.6
	c-1.2,3.3-1,6.9-0.9,7.1c0.2,0.3-1.9-7.4-1.4-11.1c0.5-3.7,0.7-6.5,0.7-6.5l-3.6-3.4c0,0-1,5.2-0.9,7.6s-1.9,8.5-1.9,8.5
	s0.3-6.8,0-11.3c-0.3-4.5,0.9-6.5,0.9-6.5s-3.6,7.7-7.7,8.8s-11.2,6-13.1,6.1c-1.9,0.1,4.9-3.5,7.5-6.3c2.6-2.7,1.7-3.6,1.7-3.6
	v-4.7c0,0-3.4,4.5-6.3,5.9s-5.8,2.2-5.8,2.2s4.1-2,6.6-5.2s2.7-4.9,2.7-4.9s-3.6-0.1-3.6-2.3s0-4.7,0-4.7s-3.6,2.1-4.4,4.1
	c-0.9,2-2.9,6.9-3.4,7.8c-0.5,0.9,0.5-6.9,1.5-9.6c1-2.7,1.5-3.7,1.5-3.7s-5.6,3.2-7.3,6.1c-1.7,2.8-3.9,8.2-4.3,9.7
	c-0.3,1.5-0.3-9.1,6-16.3c6.3-7.2,7.3-8.5,6.8-7.8c-0.5,0.6-15,10.2-16.8,11.3c-1.9,1,3.6-5.4,9.2-8.3c5.6-2.9,8.2-5.4,8.2-5.4
	s-9.4,1-11.2,0.8c-1.9-0.2-4.4,0-5.4-0.8c-1-0.8,6.8-1.8,9.2-3s4.8-4.1,3.7-5.9c-1-1.7-3.1-2-4.1-2.9c-1-0.8,5.3-0.2,5.3-0.2
	s-4.8-2.4-6.6-5.2c-1.9-2.9,0.7-0.4,2.7,0c2,0.4,6,0.4,6,0.4s-5.3-4.1-7.8-4.8s-3.7-0.8-4.9-1.2c-1.2-0.4,3.2-1,6,0
	c2.7,1,9.4,4.3,9.4,4.3s-2.2-2.8-2.7-3.3c-0.5-0.6,5.3,0.4,5.3,0.4s-8.3-2.7-10-3.1c-1.7-0.4-6.8-0.7-7.8-1.9c-1-1.2,6.3,1,9-0.2
	c2.7-1.2,6.1-0.6,6.1-0.6l1.9-1.6c0,0-5.4-2.9-7.8-1.9c-2.4,1-3.7,1.4-4.9,1.8c-1.2,0.3,2.2-2.5,5.1-3.9s7.1-1.4,8.8-1
	c1.7,0.4-2.2-1.4-1.9-3.7c0.3-2.3,0.5,1.1,2.9,1.6s2.9-2.4,2.9-2.4s-3.9-3.4-4.4-5.6s-0.5-1.5-0.3-3.1c0.2-1.6,8.3,0.5,8.3,0.5
	s-2.6-4.1-1.9-7.1c0.7-2.9,0.2-6.3,0.9-5.4c0.7,0.9,2.9,7.9,2.9,7.9s0.7-4,1.4-4.4c0.7-0.4,3.6,2.1,3.6,2.1s-2.6-5-6.8-7.3
	s-4.5-1.6-6.8-2.2c-2.3-0.6,2.9-2,7-0.2c4.1,1.8,8.7,7.7,8.7,7.7s-0.3-3-1.2-4.2c-0.9-1.2-1-2.3-1.5-3.1c-0.5-0.8,2,0,3.9,1.4
	c1.9,1.3,2.9,2.9,2.9,2.9V148.7z"/>
<path class="st3" d="M98.2,181.2c0,0-8.8,2.4-11.1,3.7c-2.2,1.3-3.1,1.7-3.1,1.7s5.4,4.9,7.1,5.4c1.6,0.6,4.3,1.3,4.3,1.3
	s-4.4,1.7-5.4,2.9c-1,1.2-3.4,3.9-2.9,5c0.5,1.1,0.3,2.3,0.3,2.3s-3.7,5.3-4.4,7.6c-0.7,2.3,3.9,0.2,5.3,0c1.4-0.2,4.1-3.6,4.1-3.6
	s-1.4,9-1,10.2c0.3,1.1,6.1-1.2,7.5-3s3.1-6.5,3.1-6.5s1,10.9,2.6,12.7c1.5,1.8,4.6-2.9,4.6-2.9s5.5,2.9,6.7,4.2
	c1.2,1.4,2.4-4.1,2.2-6.6c-0.2-2.5,4.9,0.6,6.3,1c1.4,0.4,3.9-2.9,2-7.5c-1.9-4.7-2.9-7.4-2.9-7.4s6.3,2.7,9.7,2.7s8-2,8-2
	s-2.7-6.2-6-7.2c-3.2-1-9.2-1.4-9.2-1.4s7.7-2.3,12.6-1.6c4.9,0.8,0.2-7.2-3.4-7.4c-3.6-0.2-8,0.2-8,0.2s3.6-5.1,2.9-7
	c-0.7-1.9-1.5-4.8-1.5-4.8s-3.7-0.1-6,2.6c-2.2,2.7-3.9,3.7-3.9,3.7s0.7-6.2-0.5-9.1s-5-7.2-6.1-7.4c-1.1-0.2-2.4,9.1-1.8,11.6
	s1.8,6.6,1.8,6.6s-4.1-9.2-8.2-9.9s-4.6-0.5-5.4,0.5c-0.9,1-2.6,4.3-1.4,6.6S98.2,181.2,98.2,181.2z"/>
<path class="st4" d="M105.7,182c0,0,2.9,2.6,2.4,4.3c-0.5,1.7-2.4-0.4-2.4-0.4l1.2,3.1c0,0-5,3.3-4.5,3.1c0.5-0.2,4.4-1.2,4.4-1.2
	l-1.6,4.3l3.8-2.1c0,0-1.7,1.6-1.5,5.9c0.2,4.2,2.4-4.1,2.4-4.1s0.5,7.4,1,9.5c0.5,2.1,2-7.7,2-7.7s5.1,2.5,5.6,2.7
	c0.5,0.2-2.7-3.5-3.2-3.7c-0.5-0.2,1.3-2.6,3.3-2.3c2,0.3-2.4-1.4-2.4-1.4s0.5-4,1.5-4.6c1-0.6-1-0.5-1.9,0.2
	c-0.9,0.7-0.9-2.1-1.3-4.7s-1.3-2.4-1.8,0.4c-0.5,2.7-0.8,3.1-0.8,3.1L105.7,182z"/>
</svg>
